<?xml version="1.0" encoding="UTF-8"?>
<svg width="512" height="512" viewBox="0 0 512 512" fill="none" xmlns="http://www.w3.org/2000/svg">
    <path d="M71.6875 460.304L30 0H482L440.312 460.24L255.798 512L71.6875 460.304Z" fill="#1572B6"/>
    <path d="M256 472.864L405.093 431.36L440.124 37.888H256V472.864Z" fill="#33A9DC"/>
    <path d="M256 208.576H339.52L344.833 149.056H256V91.264H408.313L407.04 105.408L393.6 255.744H256V208.576Z" fill="white"/>
    <path d="M256.239 355.456L256.044 355.52L184.335 334.592L180.167 287.744H122.183L130.367 380.032L256.044 415.232L256.239 415.168V355.456Z" fill="#EBEBEB"/>
    <path d="M337.879 252.768L331.287 334.528L256.044 355.52V415.168L381.44 380.032L382.367 369.664L393.167 252.768H337.879Z" fill="white"/>
    <path d="M256.044 91.264V149.056H109.084L108 136.768L105.567 105.408L104.294 91.264H256.044Z" fill="#EBEBEB"/>
</svg> 