<?xml version="1.0" encoding="UTF-8"?>
<svg width="512" height="512" viewBox="0 0 512 512" fill="none" xmlns="http://www.w3.org/2000/svg">
    <path d="M71.6875 460.304L30 0H482L440.312 460.24L255.798 512L71.6875 460.304Z" fill="#E44D26"/>
    <path d="M256 472.864L405.093 431.36L440.124 37.888H256V472.864Z" fill="#F16529"/>
    <path d="M256 208.576H172.48L167.167 149.056H256V91.264H103.687L104.96 105.408L118.4 255.744H256V208.576Z" fill="#EBEBEB"/>
    <path d="M256 355.456L255.798 355.52L184.335 334.592L180.167 287.744H122.183L130.367 380.032L255.798 415.232L256 415.168V355.456Z" fill="#EBEBEB"/>
    <path d="M255.92 208.576V255.744H333.44L326.847 334.528L255.92 355.52V415.168L381.44 380.032L382.367 369.664L395.167 225.408L396.48 208.576H255.92Z" fill="white"/>
    <path d="M255.92 91.264V149.056H402.88L403.967 136.768L406.4 105.408L407.673 91.264H255.92Z" fill="white"/>
</svg> 