<?xml version="1.0" encoding="UTF-8"?>
<svg width="512" height="512" viewBox="0 0 512 512" fill="none" xmlns="http://www.w3.org/2000/svg">
    <path d="M256 298.505C279.242 298.505 298.189 279.558 298.189 256.316C298.189 233.074 279.242 214.126 256 214.126C232.758 214.126 213.811 233.074 213.811 256.316C213.811 279.558 232.758 298.505 256 298.505Z" fill="#61DAFB"/>
    <path d="M256 330.947C365.419 330.947 454.189 296.084 454.189 256.316C454.189 216.547 365.419 181.684 256 181.684C146.581 181.684 57.8105 216.547 57.8105 256.316C57.8105 296.084 146.581 330.947 256 330.947Z" stroke="#61DAFB" stroke-width="12"/>
    <path d="M202.905 293.631C257.614 393.051 328.043 455.768 367.811 435.884C407.58 416 392.452 322.989 337.743 223.568C283.034 124.148 212.605 61.4316 172.837 81.3158C133.068 101.2 148.196 194.211 202.905 293.631Z" stroke="#61DAFB" stroke-width="12"/>
    <path d="M202.905 223.568C148.196 322.989 133.068 416 172.837 435.884C212.605 455.768 283.034 393.051 337.743 293.631C392.452 194.211 407.58 101.2 367.811 81.3158C328.043 61.4316 257.614 124.148 202.905 223.568Z" stroke="#61DAFB" stroke-width="12"/>
</svg> 