<?xml version="1.0" encoding="UTF-8"?>
<svg width="512" height="512" viewBox="0 0 512 512" fill="none" xmlns="http://www.w3.org/2000/svg">
    <rect width="512" height="512" fill="#F7DF1E"/>
    <path d="M134.419 427.246L172.258 403.175C179.528 415.797 186.169 426.616 202.487 426.616C218.176 426.616 228.066 420.604 228.066 396.533V233.244H274.182V397.163C274.182 445.082 245.459 466.981 204.377 466.981C167.168 466.981 145.569 447.601 134.419 427.246" fill="black"/>
    <path d="M299.463 422.864L337.302 399.423C347.192 415.797 359.972 427.876 385.851 427.876C407.45 427.876 421.859 417.057 421.859 402.513C421.859 384.913 407.45 378.901 382.201 369.182L368.422 364.27C329.323 349.726 303.444 331.496 303.444 286.75C303.444 245.755 335.412 214.57 384.591 214.57C419.339 214.57 444.588 226.494 462.787 258.939L426.578 283.639C418.839 269.095 410.47 262.453 384.591 262.453C358.082 262.453 347.822 272.642 347.822 283.639C347.822 297.153 358.082 303.165 381.571 312.254L395.35 317.166C441.466 334.766 467.345 352.366 467.345 398.163C467.345 447.601 428.468 476 387.111 476C346.384 476 315.046 450.67 299.463 422.864" fill="black"/>
</svg> 